<svg width="32" height="32" viewBox="0 0 32 32" fill="none" xmlns="http://www.w3.org/2000/svg">
<g id="icon / jam-icons / outline &#38; logos / instagram">
<path id="Vector" d="M21.3563 2.66675H10.5963C8.49386 2.66922 6.47824 3.5056 4.9917 4.9924C3.50516 6.47919 2.66911 8.49495 2.66699 10.5974L2.66699 21.3574C2.66946 23.4599 3.50585 25.4755 4.99264 26.962C6.47943 28.4486 8.4952 29.2846 10.5977 29.2867H21.3577C23.4601 29.2843 25.4757 28.4479 26.9623 26.9611C28.4488 25.4743 29.2849 23.4585 29.287 21.3561V10.5961C29.2845 8.49362 28.4481 6.478 26.9613 4.99145C25.4746 3.50491 23.4588 2.66887 21.3563 2.66675V2.66675ZM26.6097 21.3561C26.6097 22.046 26.4738 22.7291 26.2098 23.3664C25.9458 24.0038 25.5588 24.5829 25.071 25.0708C24.5832 25.5586 24.0041 25.9455 23.3667 26.2095C22.7293 26.4735 22.0462 26.6094 21.3563 26.6094H10.5963C9.20329 26.6091 7.86742 26.0554 6.88252 25.0703C5.89762 24.0851 5.34433 22.7491 5.34433 21.3561V10.5961C5.34468 9.20304 5.89831 7.86718 6.88346 6.88228C7.86862 5.89737 9.20462 5.34408 10.5977 5.34408H21.3577C22.7507 5.34443 24.0866 5.89807 25.0715 6.88322C26.0564 7.86837 26.6097 9.20438 26.6097 10.5974V21.3574V21.3561Z" fill="#FF5C15"/>
<path id="Vector_2" d="M15.9764 9.0918C14.1517 9.09462 12.4025 9.82084 11.1123 11.1113C9.8221 12.4017 9.09622 14.151 9.09375 15.9758C9.09587 17.801 9.82178 19.5509 11.1123 20.8417C12.4028 22.1324 14.1525 22.8587 15.9777 22.8611C17.8032 22.859 19.5533 22.1329 20.8441 20.8421C22.1349 19.5513 22.861 17.8013 22.8631 15.9758C22.8603 14.1506 22.1337 12.401 20.8427 11.1107C19.5517 9.82047 17.8016 9.09489 15.9764 9.09313V9.0918ZM15.9764 20.1838C14.8607 20.1838 13.7908 19.7406 13.0019 18.9517C12.213 18.1628 11.7698 17.0928 11.7698 15.9771C11.7698 14.8615 12.213 13.7915 13.0019 13.0026C13.7908 12.2137 14.8607 11.7705 15.9764 11.7705C17.0921 11.7705 18.1621 12.2137 18.951 13.0026C19.7399 13.7915 20.1831 14.8615 20.1831 15.9771C20.1831 17.0928 19.7399 18.1628 18.951 18.9517C18.1621 19.7406 17.0921 20.1838 15.9764 20.1838Z" fill="#FF5C15"/>
<path id="Vector_3" d="M22.8749 10.7935C23.7858 10.7935 24.5243 10.0551 24.5243 9.14421C24.5243 8.2333 23.7858 7.49487 22.8749 7.49487C21.964 7.49487 21.2256 8.2333 21.2256 9.14421C21.2256 10.0551 21.964 10.7935 22.8749 10.7935Z" fill="#FF5C15"/>
</g>
</svg>
