<svg width="125" height="28" viewBox="0 0 125 28" fill="none" xmlns="http://www.w3.org/2000/svg">
<g id="logo">
<path id="Vector" d="M29.5684 22.124V4.59155H35.9881C37.2335 4.59155 38.263 4.79569 39.0766 5.20401C39.8383 5.56412 40.4761 6.1421 40.9093 6.86485C41.3154 7.57395 41.5233 8.37921 41.5112 9.19628C41.5324 9.83517 41.3948 10.4693 41.1106 11.0419C40.8596 11.5269 40.4915 11.9415 40.0397 12.2481C39.589 12.5498 39.0898 12.7718 38.5639 12.9041V13.0744C39.1713 13.1119 39.7588 13.3049 40.27 13.6349C40.8463 14.0017 41.3216 14.5071 41.6524 15.1048C42.0362 15.813 42.2252 16.6103 42.2003 17.4155C42.2154 18.2605 42.0002 19.0938 41.5776 19.8258C41.1182 20.572 40.4418 21.1602 39.6391 21.5116C38.7673 21.9268 37.6521 22.1344 36.2932 22.1344L29.5684 22.124ZM32.2126 12.1754H35.7556C36.3095 12.1841 36.858 12.067 37.3601 11.8329C37.8195 11.621 38.2132 11.2889 38.4996 10.8717C38.7851 10.4358 38.93 9.92271 38.9147 9.40182C38.9222 9.06162 38.8583 8.72361 38.7271 8.40962C38.5959 8.09562 38.4003 7.81269 38.153 7.57902C37.6507 7.09322 36.8744 6.85032 35.8241 6.85032H32.2126V12.1754ZM32.2126 19.8569H36.0296C37.2957 19.8569 38.2048 19.6119 38.7507 19.122C39.0162 18.8951 39.2282 18.6125 39.3717 18.2941C39.5152 17.9758 39.5867 17.6297 39.5809 17.2805C39.587 16.7438 39.4433 16.2161 39.1658 15.7567C38.8779 15.2851 38.4647 14.9028 37.9724 14.6522C37.4043 14.3648 36.774 14.2222 36.1376 14.237H32.2126V19.8569Z" fill="#FF5C15"/>
<path id="Vector_2" d="M44.8866 6.94601C44.6758 6.94999 44.4663 6.91228 44.2699 6.83498C44.0735 6.75763 43.8946 6.64226 43.7429 6.49548C43.5918 6.36081 43.4712 6.19539 43.3893 6.01024C43.3073 5.82514 43.2658 5.62463 43.2677 5.42216C43.2654 5.21811 43.3066 5.01594 43.3886 4.82908C43.4705 4.64223 43.5913 4.47497 43.7429 4.33846C44.0538 4.05101 44.4615 3.89136 44.8845 3.89136C45.3079 3.89136 45.7155 4.05101 46.0261 4.33846C46.1778 4.47497 46.2986 4.64223 46.3804 4.82908C46.4626 5.01594 46.5037 5.21811 46.5015 5.42216C46.5033 5.62463 46.4617 5.82514 46.3799 6.01024C46.2977 6.19539 46.1774 6.36081 46.0261 6.49548C45.8752 6.64186 45.6967 6.75701 45.5012 6.83432C45.3057 6.91163 45.097 6.94956 44.8866 6.94601ZM43.5873 22.1242V8.97431H46.1463V22.1242H43.5873Z" fill="#FF5C15"/>
<path id="Vector_3" d="M50.5465 4.59155V22.124H47.9873V4.59155H50.5465Z" fill="#FF5C15"/>
<path id="Vector_4" d="M54.9117 4.59155V22.124H52.3525V4.59155H54.9117Z" fill="#FF5C15"/>
<path id="Vector_5" d="M60.6064 22.124V4.59155H67.0261C68.2714 4.59155 69.301 4.79569 70.1146 5.20401C70.8769 5.5635 71.5147 6.14162 71.9473 6.86485C72.3567 7.57596 72.5666 8.3842 72.5557 9.2046C72.5762 9.84365 72.4376 10.4778 72.1528 11.0502C71.8991 11.5329 71.5287 11.9446 71.0755 12.2481C70.625 12.5498 70.1259 12.7718 69.5997 12.9041V13.0744C70.2077 13.1119 70.796 13.3049 71.3082 13.6349C71.8843 14.0017 72.3597 14.5071 72.6904 15.1048C73.0731 15.8134 73.2612 16.6106 73.2363 17.4155C73.2516 18.2605 73.0364 19.0938 72.6138 19.8258C72.1541 20.572 71.4779 21.1602 70.6749 21.5116C69.8031 21.9268 68.6882 22.1344 67.3292 22.1344L60.6064 22.124ZM63.2509 12.1754H66.7917C67.3463 12.1839 67.8952 12.0669 68.3982 11.8329C68.8553 11.6198 69.2468 11.2878 69.5315 10.8717C69.8171 10.4358 69.9619 9.92271 69.9466 9.40182C69.954 9.06162 69.8902 8.72361 69.759 8.40962C69.6277 8.09562 69.4322 7.81269 69.1847 7.57902C68.6852 7.09322 67.9105 6.85032 66.8603 6.85032H63.2488L63.2509 12.1754ZM63.2509 19.8569H67.0677C68.3365 19.8569 69.2441 19.6119 69.7909 19.122C70.0546 18.8943 70.2646 18.6112 70.4063 18.2928C70.548 17.9745 70.618 17.6289 70.6106 17.2805C70.6167 16.7438 70.4732 16.2161 70.1955 15.7567C69.9077 15.2851 69.4943 14.9028 69.0023 14.6522C68.4341 14.3646 67.8038 14.222 67.1674 14.237H63.2488L63.2509 19.8569Z" fill="#FF5C15"/>
<path id="Vector_6" d="M82.8778 16.6704V8.97437H85.4453V22.1242H82.9298V19.8406H82.7929C82.4837 20.5495 81.9798 21.1563 81.3399 21.5906C80.6108 22.0773 79.7482 22.3241 78.8721 22.2965C78.0892 22.3126 77.3167 22.1183 76.6344 21.7339C75.9722 21.3452 75.4412 20.7667 75.1109 20.073C74.7173 19.2184 74.5279 18.2836 74.559 17.343V8.97437H77.1182V17.0233C77.1182 17.9174 77.3657 18.6302 77.8613 19.1616C78.108 19.4248 78.4085 19.6321 78.7422 19.7696C79.0759 19.9071 79.435 19.9717 79.7955 19.9589C80.2954 19.9534 80.7866 19.8304 81.2297 19.5997C81.7169 19.3508 82.1281 18.9749 82.4194 18.5119C82.7514 17.9571 82.911 17.3161 82.8778 16.6704Z" fill="#FF5C15"/>
<path id="Vector_7" d="M92.1556 22.3814C91.1491 22.398 90.1611 22.1131 89.3182 21.5634C88.4592 20.9845 87.7821 20.174 87.3652 19.2258C86.8666 18.073 86.626 16.8253 86.6593 15.5698C86.6593 14.1498 86.8981 12.9346 87.3753 11.9243C87.7956 10.9794 88.4767 10.1741 89.3388 9.6032C90.1843 9.06381 91.1693 8.78442 92.1722 8.79978C92.8537 8.77252 93.5312 8.91519 94.144 9.21497C94.5941 9.4443 94.9908 9.76617 95.3083 10.1596C95.5454 10.4615 95.7619 10.7792 95.9557 11.1104H96.1097V4.59155H98.6684V22.124H96.1779V20.0791H95.9706C95.7755 20.4157 95.5533 20.7357 95.3062 21.0361C94.9794 21.428 94.5761 21.7487 94.1213 21.9787C93.5085 22.2717 92.8336 22.41 92.1556 22.3814ZM92.7198 20.1974C93.3908 20.2173 94.0487 20.0112 94.588 19.6119C95.1225 19.1889 95.5262 18.6231 95.7523 17.9801C96.0305 17.2004 96.1648 16.3768 96.149 15.5491C96.1652 14.7332 96.0327 13.9212 95.7567 13.1533C95.5319 12.5198 95.1308 11.9638 94.6006 11.5506C94.0364 11.1723 93.3711 10.9727 92.6918 10.9775C92.0126 10.9823 91.3508 11.1914 90.7918 11.5776C90.2599 12.0028 89.858 12.5689 89.6314 13.2114C89.3646 13.9613 89.2351 14.7532 89.2495 15.5491C89.2373 16.3565 89.3703 17.1595 89.6419 17.9199C89.8698 18.5713 90.2744 19.1464 90.8106 19.5808C91.3569 20.0004 92.0314 20.2183 92.7198 20.1974Z" fill="#FF5C15"/>
<path id="Vector_8" d="M105.469 22.3814C104.463 22.3978 103.475 22.1129 102.631 21.5634C101.773 20.9844 101.097 20.1738 100.681 19.2258C100.21 18.2127 99.9746 16.9954 99.9746 15.574C99.9746 14.1525 100.213 12.9374 100.689 11.9284C101.11 10.9834 101.792 10.1782 102.654 9.60736C103.499 9.06823 104.483 8.78888 105.485 8.80393C106.168 8.77677 106.846 8.91943 107.459 9.21912C107.909 9.44951 108.305 9.77125 108.624 10.1637C108.861 10.4651 109.076 10.7829 109.269 11.1146H109.423V4.59155H111.982V22.124H109.491V20.0791H109.284C109.09 20.4157 108.868 20.7358 108.621 21.0361C108.294 21.4282 107.89 21.7489 107.434 21.9787C106.822 22.2723 106.147 22.4106 105.469 22.3814ZM106.033 20.1974C106.704 20.2177 107.362 20.0115 107.901 19.6119C108.436 19.1889 108.839 18.6231 109.066 17.9801C109.346 17.201 109.482 16.3771 109.466 15.5491C109.483 14.733 109.349 13.9209 109.072 13.1533C108.848 12.5201 108.447 11.964 107.918 11.5506C107.353 11.1723 106.689 10.9727 106.009 10.9775C105.33 10.9823 104.668 11.1914 104.109 11.5776C103.577 12.0022 103.175 12.5685 102.949 13.2114C102.679 13.9607 102.547 14.7527 102.559 15.5491C102.545 16.3565 102.677 17.1597 102.949 17.9199C103.176 18.5717 103.581 19.147 104.118 19.5808C104.665 20.0023 105.342 20.2202 106.033 20.1974Z" fill="#FF5C15"/>
<path id="Vector_9" d="M115.369 27.0549C115.022 27.0578 114.674 27.0279 114.332 26.9656C114.091 26.9263 113.855 26.8616 113.628 26.7725L114.251 24.6757C114.655 24.7931 115.075 24.8477 115.496 24.8376C115.859 24.821 116.204 24.6735 116.468 24.4224C116.812 24.0673 117.069 23.6364 117.217 23.1643L117.535 22.2924L112.715 8.97437H115.455L118.775 19.1803H118.931L122.252 8.97437H125L119.579 23.8743C119.359 24.5047 119.035 25.0941 118.622 25.6182C118.251 26.081 117.776 26.4489 117.235 26.6916C116.646 26.9434 116.01 27.0672 115.369 27.0549Z" fill="#FF5C15"/>
<path id="Vector_10" d="M25.1934 9.64959C25.1824 7.08978 24.1594 4.63829 22.3476 2.83035C20.5358 1.02242 18.0825 0.00491194 15.5233 0H9.67013C7.28273 0.00335659 4.98076 0.888812 3.20626 2.48631C1.43177 4.08381 0.309877 6.28075 0.0560431 8.65515C0.018469 8.9999 -0.000239186 9.3464 2.30823e-06 9.69321V18.3276C0.00274938 20.892 1.02244 23.3506 2.83535 25.164C4.64825 26.9773 7.10629 27.9972 9.67013 28H15.5233C17.1737 28 18.7966 27.5775 20.2376 26.7728C21.6787 25.968 22.8898 24.8078 23.7557 23.4024C24.6216 21.9971 25.1135 20.3935 25.1846 18.7443C25.2557 17.095 24.9036 15.455 24.1618 13.9803C24.8405 12.6389 25.1959 11.1572 25.1996 9.65374L25.1934 9.64959ZM9.67013 2.07607H15.5233C16.7143 2.07184 17.8895 2.34887 18.9533 2.88462C20.0172 3.42038 20.9396 4.19972 21.6454 5.15931C22.3513 6.11883 22.8208 7.23152 23.0157 8.40678C23.2106 9.58208 23.1254 10.7868 22.767 11.9229C22.711 11.8585 22.6508 11.7942 22.5906 11.7298C22.5304 11.6655 22.4744 11.6073 22.4163 11.5492C22.3582 11.4911 22.298 11.4288 22.2357 11.3707C22.0385 11.1797 21.8351 10.9991 21.6234 10.8288C21.5508 10.7686 21.476 10.7105 21.4013 10.6523L21.2602 10.5485C21.1917 10.4966 21.1232 10.4489 21.0526 10.3991C20.8347 10.2475 20.6105 10.1042 20.3822 9.97137L20.1892 9.86344L19.9816 9.74925C19.8266 9.66621 19.6689 9.58939 19.5084 9.51877C19.4129 9.4752 19.3174 9.43368 19.2199 9.39422C19.1223 9.3548 18.9957 9.30287 18.8795 9.25929L18.6802 9.19284C18.5599 9.14926 18.4394 9.1098 18.3149 9.07244L18.0264 8.9894C17.9247 8.96241 17.8189 8.93541 17.7213 8.91257L17.4515 8.85238L17.3892 8.83991L17.1277 8.79217L17.0675 8.78181C16.9762 8.76518 16.8828 8.75271 16.7915 8.74029L16.4967 8.70498H16.4345L16.2269 8.68836H16.0858C15.899 8.67799 15.7101 8.67177 15.5212 8.67177H2.14408C2.38904 6.84792 3.28653 5.17471 4.6703 3.96198C6.05409 2.74928 7.83035 2.07927 9.67013 2.07607ZM15.5233 25.9239H9.67013C7.65662 25.9217 5.72617 25.1207 4.3024 23.6966C2.87862 22.2725 2.07778 20.3416 2.07558 18.3276V10.7312H15.5233C17.5375 10.7312 19.4692 11.5315 20.8934 12.9561C22.3177 14.3808 23.1178 16.3129 23.1178 18.3276C23.1178 20.3423 22.3177 22.2744 20.8934 23.699C19.4692 25.1236 17.5375 25.9239 15.5233 25.9239Z" fill="#FF5C15"/>
</g>
</svg>
