<svg width="32" height="32" viewBox="0 0 32 32" fill="none" xmlns="http://www.w3.org/2000/svg">
<g id="icon / jam-icons / outline &#38; logos / youtube">
<path id="Vector" d="M23.7497 6.68957H8.19366C5.14033 6.68957 2.66699 9.13623 2.66699 12.1549V19.8456C2.66699 22.8642 5.14166 25.3122 8.19366 25.3122H23.7497C26.803 25.3122 29.2763 22.8642 29.2763 19.8456V12.1549C29.2763 9.13623 26.8017 6.68823 23.7497 6.68823V6.68957ZM20.0123 16.3736L12.7363 19.8069C12.6919 19.8283 12.6429 19.8381 12.5937 19.8354C12.5445 19.8327 12.4968 19.8176 12.455 19.7915C12.4133 19.7654 12.3787 19.7292 12.3547 19.6862C12.3307 19.6432 12.318 19.5948 12.3177 19.5456V12.4669C12.3185 12.4174 12.332 12.3689 12.3566 12.326C12.3813 12.2831 12.4164 12.2471 12.4588 12.2214C12.5011 12.1957 12.5492 12.1812 12.5987 12.1791C12.6482 12.177 12.6973 12.1875 12.7417 12.2096L20.019 15.8562C20.0675 15.8804 20.1081 15.9178 20.1363 15.964C20.1645 16.0102 20.1791 16.0635 20.1784 16.1177C20.1777 16.1718 20.1618 16.2247 20.1324 16.2702C20.103 16.3157 20.0614 16.352 20.0123 16.3749V16.3736Z" fill="#FF5C15"/>
</g>
</svg>
